<svg xmlns="http://www.w3.org/2000/svg" width="46.163" height="37.615" viewBox="0 0 46.163 37.615">
  <g id="Group_497" data-name="Group 497" transform="translate(0 0)">
    <path id="Path_1615" data-name="Path 1615" d="M1186.255,1277.406s.253-1.26.449-1.141.045.553.043.865a.571.571,0,0,0,.012.169c.019.029.486-.953.687-.822s-.41.918-.41.918-.034.061.006.042.666-.712.714-.568-.5.737-.626.876.01.352.172.229.625-.475.663-.325-.846.873-.846.873a1.209,1.209,0,0,1-.7.659l-.336,1.3s-4.157,5.5-4.873,5.809c0,0,.909,6.025.866,7.1l-1.289.149.029.819.2.018-.273,1.354s2.435,7.105,2.764,11.167a10.245,10.245,0,0,0,.777.842c.33.3,1.62-.044,1.62-.044a2.943,2.943,0,0,1-1.571,1.8l-.506-.044-.864.723s-4.578-10-5.519-13.214c0,0-.468-2.015-1.57,9.491l.311,1.678.1.451s-.424,1.528-.669,1.591a.921.921,0,0,0-.511.4,14.815,14.815,0,0,1-1.715-.237s.469-1.269.985-1.325l-.294-.129.169-1.908s-.4-1.349-.234-6.988a56.708,56.708,0,0,1-.193-6.678l-.2-.068.024-.27-.384-.085-.14-.146-1.587-.14-.355.171-.232-.072.289-5.2s1.445-3.258,1.72-2.91c0,0-3.128-4.836-3.4-4.793l-.091-.893-.487-.656-.151-.4-.152-.014-.977.662-2.508-3.1,4.553-2.431,2.324,2.579-.052.582-1.924.979.208.248-.139.7,4.032,4.338s1.931.094,2.439,1.568l.177.016.079-.887s-.374-.109-.047-1.484,1.554-2.288,2.881-.256c0,0,.422.42-.139,1.57,0,0-.4.731.164.449s.378-.809,1.242-.2l4.606-4.467s.388-1.5-.164-1.9c0,0,.19-.659.688.542l.138.075" transform="translate(-1165.187 -1272.961)" fill="#fff"/>
    <path id="Path_1616" data-name="Path 1616" d="M1291.723,1360.7v-20.552h-3.245V1360.7H1287.4v-18.172h-3.245V1360.7l-1.081-.216v-15.144h-3.246v15.144h-1.3v-12.764h-3.245v12.764H1274.2v-10.168h-3.245v10.168h-1.514v-22.715h-.865v23.581h23.8v-.865Z" transform="translate(-1246.208 -1323.746)" fill="#fff"/>
    <path id="Path_1617" data-name="Path 1617" d="M1303.965,1319.917l-1.758-.528c-2.021,3.653-5.716,6.635-10.7,8.633a31.986,31.986,0,0,1-7.164,1.968l-.229-1.187a30.881,30.881,0,0,0,6.779-1.875c4.686-1.885,8.022-4.562,9.925-7.957l-1.743-.525,3.354-1.247Z" transform="translate(-1258.385 -1307.628)" fill="#fff"/>
  </g>
</svg>
